<svg xmlns="http://www.w3.org/2000/svg" width="1440" height="900"><path d="M673,449L735,388L626,339Z" fill="#83afd2" stroke="#83afd2" stroke-width="1.51"/><path d="M626,339L510,427L673,449Z" fill="#89b1d3" stroke="#89b1d3" stroke-width="1.51"/><path d="M678,255L601,308L626,339Z" fill="#95b6d7" stroke="#95b6d7" stroke-width="1.51"/><path d="M735,388L678,255L626,339Z" fill="#8cb2d5" stroke="#8cb2d5" stroke-width="1.51"/><path d="M735,388L788,193L678,255Z" fill="#8fb3d5" stroke="#8fb3d5" stroke-width="1.51"/><path d="M750,516L818,427L735,388Z" fill="#70a7ce" stroke="#70a7ce" stroke-width="1.51"/><path d="M673,449L750,516L735,388Z" fill="#74a9cf" stroke="#74a9cf" stroke-width="1.51"/><path d="M601,308L510,427L626,339Z" fill="#93b5d6" stroke="#93b5d6" stroke-width="1.51"/><path d="M673,449L636,589L750,516Z" fill="#6da5cd" stroke="#6da5cd" stroke-width="1.51"/><path d="M601,308L466,245L510,427Z" fill="#9dbad8" stroke="#9dbad8" stroke-width="1.51"/><path d="M678,255L557,246L601,308Z" fill="#9cb9d9" stroke="#9cb9d9" stroke-width="1.51"/><path d="M510,427L530,510L673,449Z" fill="#83aed3" stroke="#83aed3" stroke-width="1.51"/><path d="M530,510L636,589L673,449Z" fill="#76a8cf" stroke="#76a8cf" stroke-width="1.51"/><path d="M941,299L788,193L735,388Z" fill="#83add1" stroke="#83add1" stroke-width="1.51"/><path d="M678,255L605,143L557,246Z" fill="#a4bcdb" stroke="#a4bcdb" stroke-width="1.51"/><path d="M750,516L854,539L818,427Z" fill="#63a0ca" stroke="#63a0ca" stroke-width="1.51"/><path d="M818,427L941,299L735,388Z" fill="#75a8cf" stroke="#75a8cf" stroke-width="1.51"/><path d="M738,631L854,539L750,516Z" fill="#5a9cc7" stroke="#5a9cc7" stroke-width="1.51"/><path d="M557,246L466,245L601,308Z" fill="#a4bcda" stroke="#a4bcda" stroke-width="1.51"/><path d="M510,427L436,489L530,510Z" fill="#8ab1d4" stroke="#8ab1d4" stroke-width="1.51"/><path d="M473,131L466,245L557,246Z" fill="#b1c2de" stroke="#b1c2de" stroke-width="1.51"/><path d="M788,193L605,143L678,255Z" fill="#9ebada" stroke="#9ebada" stroke-width="1.51"/><path d="M636,589L738,631L750,516Z" fill="#609fc9" stroke="#609fc9" stroke-width="1.51"/><path d="M530,510L466,615L636,589Z" fill="#75a7ce" stroke="#75a7ce" stroke-width="1.51"/><path d="M353,432L436,489L510,427Z" fill="#94b5d7" stroke="#94b5d7" stroke-width="1.51"/><path d="M854,539L923,499L818,427Z" fill="#5c9ec9" stroke="#5c9ec9" stroke-width="1.51"/><path d="M1052,590L923,499L1040,661Z" fill="#398ebf" stroke="#398ebf" stroke-width="1.51"/><path d="M999,387L941,299L818,427Z" fill="#6ba3cc" stroke="#6ba3cc" stroke-width="1.51"/><path d="M466,245L390,287L510,427Z" fill="#a5bcdb" stroke="#a5bcdb" stroke-width="1.51"/><path d="M336,214L390,287L466,245Z" fill="#b5c3df" stroke="#b5c3df" stroke-width="1.51"/><path d="M436,489L466,615L530,510Z" fill="#82acd2" stroke="#82acd2" stroke-width="1.51"/><path d="M636,589L709,691L738,631Z" fill="#5a9ac7" stroke="#5a9ac7" stroke-width="1.51"/><path d="M604,694L709,691L636,589Z" fill="#5e9ac7" stroke="#5e9ac7" stroke-width="1.51"/><path d="M738,631L845,674L854,539Z" fill="#4b97c4" stroke="#4b97c4" stroke-width="1.51"/><path d="M466,615L604,694L636,589Z" fill="#6ba0cb" stroke="#6ba0cb" stroke-width="1.51"/><path d="M390,287L353,432L510,427Z" fill="#9fbad9" stroke="#9fbad9" stroke-width="1.51"/><path d="M436,489L343,525L466,615Z" fill="#87aed2" stroke="#87aed2" stroke-width="1.51"/><path d="M605,143L473,131L557,246Z" fill="#b1c2de" stroke="#b1c2de" stroke-width="1.51"/><path d="M941,299L924,182L788,193Z" fill="#86aed2" stroke="#86aed2" stroke-width="1.51"/><path d="M788,193L790,54L605,143Z" fill="#a4bcdb" stroke="#a4bcdb" stroke-width="1.51"/><path d="M924,182L840,108L788,193Z" fill="#93b4d5" stroke="#93b4d5" stroke-width="1.51"/><path d="M605,143L492,106L473,131Z" fill="#b8c6e0" stroke="#b8c6e0" stroke-width="1.51"/><path d="M923,499L990,449L818,427Z" fill="#5c9ec9" stroke="#5c9ec9" stroke-width="1.51"/><path d="M941,299L998,255L924,182Z" fill="#7ca9cf" stroke="#7ca9cf" stroke-width="1.51"/><path d="M1052,590L990,449L923,499Z" fill="#4a95c3" stroke="#4a95c3" stroke-width="1.51"/><path d="M990,449L999,387L818,427Z" fill="#609fc9" stroke="#609fc9" stroke-width="1.51"/><path d="M564,-11L492,106L605,143Z" fill="#bac7e1" stroke="#bac7e1" stroke-width="1.51"/><path d="M709,691L845,674L738,631Z" fill="#4e94c3" stroke="#4e94c3" stroke-width="1.51"/><path d="M840,108L790,54L788,193Z" fill="#9db9d8" stroke="#9db9d8" stroke-width="1.51"/><path d="M811,-53L790,54L942,0Z" fill="#a3bedc" stroke="#a3bedc" stroke-width="1.51"/><path d="M999,387L998,255L941,299Z" fill="#70a3cc" stroke="#70a3cc" stroke-width="1.51"/><path d="M390,287L329,297L353,432Z" fill="#abbfdc" stroke="#abbfdc" stroke-width="1.51"/><path d="M336,214L329,297L390,287Z" fill="#b6c4e0" stroke="#b6c4e0" stroke-width="1.51"/><path d="M336,214L466,245L473,131Z" fill="#b9c6e0" stroke="#b9c6e0" stroke-width="1.51"/><path d="M182,425L343,525L353,432Z" fill="#a0bad9" stroke="#a0bad9" stroke-width="1.51"/><path d="M353,432L343,525L436,489Z" fill="#94b5d6" stroke="#94b5d6" stroke-width="1.51"/><path d="M248,215L336,214L210,127Z" fill="#c9cde4" stroke="#c9cde4" stroke-width="1.51"/><path d="M604,694L661,813L709,691Z" fill="#5792c3" stroke="#5792c3" stroke-width="1.51"/><path d="M709,691L834,785L845,674Z" fill="#458dc0" stroke="#458dc0" stroke-width="1.51"/><path d="M466,615L583,772L604,694Z" fill="#689bc8" stroke="#689bc8" stroke-width="1.51"/><path d="M392,699L583,772L466,615Z" fill="#709dc9" stroke="#709dc9" stroke-width="1.51"/><path d="M279,57L336,214L473,131Z" fill="#c7cce4" stroke="#c7cce4" stroke-width="1.51"/><path d="M619,-49L564,-11L605,143Z" fill="#bacae2" stroke="#bacae2" stroke-width="1.51"/><path d="M343,525L392,699L466,615Z" fill="#7faad0" stroke="#7faad0" stroke-width="1.51"/><path d="M583,772L661,813L604,694Z" fill="#5b91c3" stroke="#5b91c3" stroke-width="1.51"/><path d="M517,908L661,813L583,772Z" fill="#5c8dbc" stroke="#5c8dbc" stroke-width="1.51"/><path d="M1040,661L923,499L854,539Z" fill="#4294c3" stroke="#4294c3" stroke-width="1.51"/><path d="M778,859L834,785L709,691Z" fill="#4488bc" stroke="#4488bc" stroke-width="1.51"/><path d="M1040,661L854,539L845,674Z" fill="#3b90c0" stroke="#3b90c0" stroke-width="1.51"/><path d="M990,449L1104,415L999,387Z" fill="#5b99c6" stroke="#5b99c6" stroke-width="1.51"/><path d="M999,387L1122,254L998,255Z" fill="#709fca" stroke="#709fca" stroke-width="1.51"/><path d="M1052,590L1104,415L990,449Z" fill="#4c92c3" stroke="#4c92c3" stroke-width="1.51"/><path d="M790,54L619,-49L605,143Z" fill="#b1c5df" stroke="#b1c5df" stroke-width="1.51"/><path d="M329,297L235,293L353,432Z" fill="#b0c2de" stroke="#b0c2de" stroke-width="1.51"/><path d="M343,525L262,640L392,699Z" fill="#85acd1" stroke="#85acd1" stroke-width="1.51"/><path d="M248,215L235,293L329,297Z" fill="#bdc8e1" stroke="#bdc8e1" stroke-width="1.51"/><path d="M248,215L329,297L336,214Z" fill="#bec8e1" stroke="#bec8e1" stroke-width="1.51"/><path d="M445,-46L473,131L492,106Z" fill="#c3cde4" stroke="#c3cde4" stroke-width="1.51"/><path d="M790,54L811,-53L619,-49Z" fill="#afc6e0" stroke="#afc6e0" stroke-width="1.51"/><path d="M942,0L790,54L840,108Z" fill="#9ebbd9" stroke="#9ebbd9" stroke-width="1.51"/><path d="M991,54L840,108L924,182Z" fill="#92b3d5" stroke="#92b3d5" stroke-width="1.51"/><path d="M991,54L924,182L998,255Z" fill="#88add2" stroke="#88add2" stroke-width="1.51"/><path d="M1140,106L991,54L998,255Z" fill="#88a9d0" stroke="#88a9d0" stroke-width="1.51"/><path d="M1052,590L1129,595L1104,415Z" fill="#3f8cbf" stroke="#3f8cbf" stroke-width="1.51"/><path d="M913,791L1040,661L845,674Z" fill="#2f87bc" stroke="#2f87bc" stroke-width="1.51"/><path d="M1104,415L1122,254L999,387Z" fill="#659ac7" stroke="#659ac7" stroke-width="1.51"/><path d="M991,54L942,0L840,108Z" fill="#97b7d7" stroke="#97b7d7" stroke-width="1.51"/><path d="M834,785L913,791L845,674Z" fill="#3886bc" stroke="#3886bc" stroke-width="1.51"/><path d="M857,871L913,791L834,785Z" fill="#3481b5" stroke="#3481b5" stroke-width="1.51"/><path d="M991,54L987,24L942,0Z" fill="#96b6d6" stroke="#96b6d6" stroke-width="1.51"/><path d="M1159,-13L987,24L991,54Z" fill="#93b0d4" stroke="#93b0d4" stroke-width="1.51"/><path d="M186,581L262,640L343,525Z" fill="#90b2d4" stroke="#90b2d4" stroke-width="1.51"/><path d="M661,813L778,859L709,691Z" fill="#4c8abd" stroke="#4c8abd" stroke-width="1.51"/><path d="M564,-11L445,-46L492,106Z" fill="#c5cee5" stroke="#c5cee5" stroke-width="1.51"/><path d="M525,-112L445,-46L564,-11Z" fill="#c9d2e7" stroke="#c9d2e7" stroke-width="1.51"/><path d="M525,-112L564,-11L619,-49Z" fill="#c3d0e6" stroke="#c3d0e6" stroke-width="1.51"/><path d="M235,293L182,425L353,432Z" fill="#aec1dd" stroke="#aec1dd" stroke-width="1.51"/><path d="M126,339L182,425L235,293Z" fill="#b7c6e0" stroke="#b7c6e0" stroke-width="1.51"/><path d="M346,829L391,800L392,699Z" fill="#769ac7" stroke="#769ac7" stroke-width="1.51"/><path d="M392,699L391,800L583,772Z" fill="#6e98c7" stroke="#6e98c7" stroke-width="1.51"/><path d="M661,813L608,956L778,859Z" fill="#4e85b4" stroke="#4e85b4" stroke-width="1.51"/><path d="M1040,661L1129,595L1052,590Z" fill="#2d87bb" stroke="#2d87bb" stroke-width="1.51"/><path d="M1104,415L1190,317L1122,254Z" fill="#6696c6" stroke="#6696c6" stroke-width="1.51"/><path d="M1077,721L1129,595L1040,661Z" fill="#2682b9" stroke="#2682b9" stroke-width="1.51"/><path d="M811,-53L664,-122L619,-49Z" fill="#b8cbe3" stroke="#b8cbe3" stroke-width="1.51"/><path d="M799,-179L664,-122L811,-53Z" fill="#b4cae2" stroke="#b4cae2" stroke-width="1.51"/><path d="M1195,428L1179,380L1104,415Z" fill="#5690c2" stroke="#5690c2" stroke-width="1.51"/><path d="M96,263L126,339L235,293Z" fill="#c1cbe3" stroke="#c1cbe3" stroke-width="1.51"/><path d="M445,-46L279,57L473,131Z" fill="#cbd1e6" stroke="#cbd1e6" stroke-width="1.51"/><path d="M445,-46L305,-34L279,57Z" fill="#d5d7e9" stroke="#d5d7e9" stroke-width="1.51"/><path d="M664,-122L525,-112L619,-49Z" fill="#c2d0e6" stroke="#c2d0e6" stroke-width="1.51"/><path d="M913,791L1077,721L1040,661Z" fill="#2580b8" stroke="#2580b8" stroke-width="1.51"/><path d="M778,859L857,871L834,785Z" fill="#3b81b4" stroke="#3b81b4" stroke-width="1.51"/><path d="M262,640L235,693L392,699Z" fill="#84a7cf" stroke="#84a7cf" stroke-width="1.51"/><path d="M182,425L186,581L343,525Z" fill="#9db9d8" stroke="#9db9d8" stroke-width="1.51"/><path d="M1179,380L1190,317L1104,415Z" fill="#5d92c4" stroke="#5d92c4" stroke-width="1.51"/><path d="M1122,254L1140,106L998,255Z" fill="#7ca2cc" stroke="#7ca2cc" stroke-width="1.51"/><path d="M1129,595L1195,428L1104,415Z" fill="#488cc0" stroke="#488cc0" stroke-width="1.51"/><path d="M1179,380L1381,355L1190,317Z" fill="#5e8ebe" stroke="#5e8ebe" stroke-width="1.51"/><path d="M993,831L1077,721L913,791Z" fill="#207cb5" stroke="#207cb5" stroke-width="1.51"/><path d="M279,57L210,127L336,214Z" fill="#cfd1e5" stroke="#cfd1e5" stroke-width="1.51"/><path d="M186,581L235,693L262,640Z" fill="#8daed3" stroke="#8daed3" stroke-width="1.51"/><path d="M432,877L517,908L583,772Z" fill="#648ebb" stroke="#648ebb" stroke-width="1.51"/><path d="M778,859L824,1071L857,871Z" fill="#397aa9" stroke="#397aa9" stroke-width="1.51"/><path d="M432,877L583,772L391,800Z" fill="#6b93c0" stroke="#6b93c0" stroke-width="1.51"/><path d="M1257,215L1140,106L1122,254Z" fill="#7a9cca" stroke="#7a9cca" stroke-width="1.51"/><path d="M96,263L235,293L248,215Z" fill="#c4cce3" stroke="#c4cce3" stroke-width="1.51"/><path d="M182,425L128,463L186,581Z" fill="#a4bedb" stroke="#a4bedb" stroke-width="1.51"/><path d="M346,829L432,877L391,800Z" fill="#7294c0" stroke="#7294c0" stroke-width="1.51"/><path d="M126,339L128,463L182,425Z" fill="#b1c5df" stroke="#b1c5df" stroke-width="1.51"/><path d="M186,581L120,609L235,693Z" fill="#91b1d4" stroke="#91b1d4" stroke-width="1.51"/><path d="M977,897L993,831L913,791Z" fill="#237aaf" stroke="#237aaf" stroke-width="1.51"/><path d="M235,693L346,829L392,699Z" fill="#7d9fcb" stroke="#7d9fcb" stroke-width="1.51"/><path d="M525,-112L386,-87L445,-46Z" fill="#d0d6e9" stroke="#d0d6e9" stroke-width="1.51"/><path d="M279,57L124,-60L210,127Z" fill="#dbdaeb" stroke="#dbdaeb" stroke-width="1.51"/><path d="M1222,693L1227,566L1129,595Z" fill="#237eb7" stroke="#237eb7" stroke-width="1.51"/><path d="M1129,595L1227,566L1195,428Z" fill="#3b86bc" stroke="#3b86bc" stroke-width="1.51"/><path d="M993,831L1077,762L1077,721Z" fill="#1a78b4" stroke="#1a78b4" stroke-width="1.51"/><path d="M386,-87L305,-34L445,-46Z" fill="#d5d8ea" stroke="#d5d8ea" stroke-width="1.51"/><path d="M660,1009L608,956L537,1026Z" fill="#537ca3" stroke="#537ca3" stroke-width="1.51"/><path d="M517,908L608,956L661,813Z" fill="#5988b4" stroke="#5988b4" stroke-width="1.51"/><path d="M857,871L977,897L913,791Z" fill="#2a7caf" stroke="#2a7caf" stroke-width="1.51"/><path d="M889,-175L799,-179L811,-53Z" fill="#aec7e0" stroke="#aec7e0" stroke-width="1.51"/><path d="M664,-122L799,-179L525,-112Z" fill="#bfcfe5" stroke="#bfcfe5" stroke-width="1.51"/><path d="M525,-112L364,-110L386,-87Z" fill="#d4d9ea" stroke="#d4d9ea" stroke-width="1.51"/><path d="M889,-175L811,-53L942,0Z" fill="#a6c1dd" stroke="#a6c1dd" stroke-width="1.51"/><path d="M889,-175L942,0L1035,-106Z" fill="#a0bddb" stroke="#a0bddb" stroke-width="1.51"/><path d="M386,-87L364,-110L305,-34Z" fill="#d9daec" stroke="#d9daec" stroke-width="1.51"/><path d="M241,-158L364,-110L525,-112Z" fill="#dadcec" stroke="#dadcec" stroke-width="1.51"/><path d="M1330,242L1257,215L1190,317Z" fill="#6d93c0" stroke="#6d93c0" stroke-width="1.51"/><path d="M1222,693L1129,595L1077,721Z" fill="#207cb7" stroke="#207cb7" stroke-width="1.51"/><path d="M126,339L22,377L128,463Z" fill="#b7c8e1" stroke="#b7c8e1" stroke-width="1.51"/><path d="M210,127L96,263L248,215Z" fill="#ccd0e6" stroke="#ccd0e6" stroke-width="1.51"/><path d="M32,160L96,263L210,127Z" fill="#d3d5e9" stroke="#d3d5e9" stroke-width="1.51"/><path d="M432,877L537,1026L517,908Z" fill="#6388b1" stroke="#6388b1" stroke-width="1.51"/><path d="M346,829L336,876L432,877Z" fill="#7393be" stroke="#7393be" stroke-width="1.51"/><path d="M180,867L336,876L346,829Z" fill="#7b97c0" stroke="#7b97c0" stroke-width="1.51"/><path d="M235,693L160,829L346,829Z" fill="#829ec9" stroke="#829ec9" stroke-width="1.51"/><path d="M128,463L120,609L186,581Z" fill="#9dbad9" stroke="#9dbad9" stroke-width="1.51"/><path d="M101,641L120,609L-3,527Z" fill="#9bbad9" stroke="#9bbad9" stroke-width="1.51"/><path d="M993,831L1130,872L1077,762Z" fill="#1874ae" stroke="#1874ae" stroke-width="1.51"/><path d="M1077,762L1222,693L1077,721Z" fill="#1978b4" stroke="#1978b4" stroke-width="1.51"/><path d="M1006,969L977,897L862,1070Z" fill="#206e9d" stroke="#206e9d" stroke-width="1.51"/><path d="M1035,-106L942,0L987,24Z" fill="#9ab8d8" stroke="#9ab8d8" stroke-width="1.51"/><path d="M1190,317L1257,215L1122,254Z" fill="#6f97c6" stroke="#6f97c6" stroke-width="1.51"/><path d="M1159,-13L1035,-106L987,24Z" fill="#97b3d5" stroke="#97b3d5" stroke-width="1.51"/><path d="M1330,242L1190,317L1381,355Z" fill="#658ebc" stroke="#658ebc" stroke-width="1.51"/><path d="M1159,-13L991,54L1140,106Z" fill="#8eabd1" stroke="#8eabd1" stroke-width="1.51"/><path d="M305,-34L247,-62L279,57Z" fill="#dbdaeb" stroke="#dbdaeb" stroke-width="1.51"/><path d="M364,-110L247,-62L305,-34Z" fill="#dddcec" stroke="#dddcec" stroke-width="1.51"/><path d="M608,956L660,1009L778,859Z" fill="#4c80ab" stroke="#4c80ab" stroke-width="1.51"/><path d="M537,1026L608,956L517,908Z" fill="#5a83ab" stroke="#5a83ab" stroke-width="1.51"/><path d="M120,609L101,641L235,693Z" fill="#91b1d4" stroke="#91b1d4" stroke-width="1.51"/><path d="M-3,527L120,609L128,463Z" fill="#a3bedb" stroke="#a3bedb" stroke-width="1.51"/><path d="M1196,-41L1159,-13L1290,92Z" fill="#8ca5cd" stroke="#8ca5cd" stroke-width="1.51"/><path d="M1130,872L1222,693L1077,762Z" fill="#0d72b0" stroke="#0d72b0" stroke-width="1.51"/><path d="M1381,355L1179,380L1195,428Z" fill="#578cbc" stroke="#578cbc" stroke-width="1.51"/><path d="M96,263L22,377L126,339Z" fill="#c2cde4" stroke="#c2cde4" stroke-width="1.51"/><path d="M1,270L22,377L96,263Z" fill="#c7d1e6" stroke="#c7d1e6" stroke-width="1.51"/><path d="M377,1069L537,1026L432,877Z" fill="#6484a9" stroke="#6484a9" stroke-width="1.51"/><path d="M1006,969L1130,872L977,897Z" fill="#1970a5" stroke="#1970a5" stroke-width="1.51"/><path d="M977,897L1130,872L993,831Z" fill="#1b73aa" stroke="#1b73aa" stroke-width="1.51"/><path d="M862,1070L977,897L857,871Z" fill="#2b75a4" stroke="#2b75a4" stroke-width="1.51"/><path d="M824,1071L778,859L660,1009Z" fill="#4078a3" stroke="#4078a3" stroke-width="1.51"/><path d="M1290,92L1159,-13L1140,106Z" fill="#88a3cd" stroke="#88a3cd" stroke-width="1.51"/><path d="M1381,355L1195,428L1391,461Z" fill="#5086b6" stroke="#5086b6" stroke-width="1.51"/><path d="M1159,-13L1196,-41L1035,-106Z" fill="#95afd4" stroke="#95afd4" stroke-width="1.51"/><path d="M1035,-106L1075,-181L889,-175Z" fill="#a1bddb" stroke="#a1bddb" stroke-width="1.51"/><path d="M1290,92L1140,106L1257,215Z" fill="#809cc7" stroke="#809cc7" stroke-width="1.51"/><path d="M101,641L160,829L235,693Z" fill="#8ba8d0" stroke="#8ba8d0" stroke-width="1.51"/><path d="M336,876L377,1069L432,877Z" fill="#6e8cb3" stroke="#6e8cb3" stroke-width="1.51"/><path d="M124,-60L32,160L210,127Z" fill="#dddbeb" stroke="#dddbeb" stroke-width="1.51"/><path d="M32,160L1,270L96,263Z" fill="#d0d5e8" stroke="#d0d5e8" stroke-width="1.51"/><path d="M1330,242L1290,92L1257,215Z" fill="#7796c1" stroke="#7796c1" stroke-width="1.51"/><path d="M1310,642L1322,607L1227,566Z" fill="#257bb0" stroke="#257bb0" stroke-width="1.51"/><path d="M1310,642L1227,566L1222,693Z" fill="#207ab1" stroke="#207ab1" stroke-width="1.51"/><path d="M160,829L180,867L346,829Z" fill="#819ac3" stroke="#819ac3" stroke-width="1.51"/><path d="M-78,471L-3,527L22,377Z" fill="#b3c9e1" stroke="#b3c9e1" stroke-width="1.51"/><path d="M22,377L-3,527L128,463Z" fill="#b0c6e0" stroke="#b0c6e0" stroke-width="1.51"/><path d="M101,641L58,809L160,829Z" fill="#8da7d0" stroke="#8da7d0" stroke-width="1.51"/><path d="M160,829L81,917L180,867Z" fill="#849cc2" stroke="#849cc2" stroke-width="1.51"/><path d="M1330,747L1310,642L1222,693Z" fill="#1772ab" stroke="#1772ab" stroke-width="1.51"/><path d="M247,-62L124,-60L279,57Z" fill="#e0deed" stroke="#e0deed" stroke-width="1.51"/><path d="M364,-110L241,-158L247,-62Z" fill="#e1dfee" stroke="#e1dfee" stroke-width="1.51"/><path d="M799,-179L241,-158L525,-112Z" fill="#cdd7e9" stroke="#cdd7e9" stroke-width="1.51"/><path d="M1196,-41L1075,-181L1035,-106Z" fill="#99b3d6" stroke="#99b3d6" stroke-width="1.51"/><path d="M889,-175L1075,-181L799,-179Z" fill="#a8c3de" stroke="#a8c3de" stroke-width="1.51"/><path d="M537,1026L824,1071L660,1009Z" fill="#48759b" stroke="#48759b" stroke-width="1.51"/><path d="M241,-158L124,-60L247,-62Z" fill="#e5e2ef" stroke="#e5e2ef" stroke-width="1.51"/><path d="M1330,242L1327,85L1290,92Z" fill="#7c98c0" stroke="#7c98c0" stroke-width="1.51"/><path d="M1391,461L1195,428L1227,566Z" fill="#4384b7" stroke="#4384b7" stroke-width="1.51"/><path d="M824,1071L862,1070L857,871Z" fill="#31719b" stroke="#31719b" stroke-width="1.51"/><path d="M1196,-41L1245,-178L1075,-181Z" fill="#98afd5" stroke="#98afd5" stroke-width="1.51"/><path d="M1290,92L1327,85L1196,-41Z" fill="#87a0c7" stroke="#87a0c7" stroke-width="1.51"/><path d="M1419,138L1327,85L1330,242Z" fill="#7994bc" stroke="#7994bc" stroke-width="1.51"/><path d="M1322,607L1391,461L1227,566Z" fill="#357eb1" stroke="#357eb1" stroke-width="1.51"/><path d="M1448,621L1391,461L1322,607Z" fill="#2f79aa" stroke="#2f79aa" stroke-width="1.51"/><path d="M537,1026L377,1069L824,1071Z" fill="#51779a" stroke="#51779a" stroke-width="1.51"/><path d="M180,867L260,986L336,876Z" fill="#7b94ba" stroke="#7b94ba" stroke-width="1.51"/><path d="M-3,527L-14,654L101,641Z" fill="#9cbbd9" stroke="#9cbbd9" stroke-width="1.51"/><path d="M180,867L232,995L260,986Z" fill="#7b92b6" stroke="#7b92b6" stroke-width="1.51"/><path d="M-193,566L-14,654L-3,527Z" fill="#a4c0dc" stroke="#a4c0dc" stroke-width="1.51"/><path d="M241,-158L89,-72L124,-60Z" fill="#e9e4f1" stroke="#e9e4f1" stroke-width="1.51"/><path d="M124,-60L89,-72L32,160Z" fill="#e6e2ef" stroke="#e6e2ef" stroke-width="1.51"/><path d="M-98,446L22,377L-110,320Z" fill="#c0cfe5" stroke="#c0cfe5" stroke-width="1.51"/><path d="M1391,461L1411,420L1381,355Z" fill="#4f84b1" stroke="#4f84b1" stroke-width="1.51"/><path d="M1381,355L1424,207L1330,242Z" fill="#688db7" stroke="#688db7" stroke-width="1.51"/><path d="M1590,442L1411,420L1391,461Z" fill="#477da7" stroke="#477da7" stroke-width="1.51"/><path d="M260,986L377,1069L336,876Z" fill="#708aae" stroke="#708aae" stroke-width="1.51"/><path d="M-14,654L58,809L101,641Z" fill="#94afd4" stroke="#94afd4" stroke-width="1.51"/><path d="M260,986L232,995L377,1069Z" fill="#7187a8" stroke="#7187a8" stroke-width="1.51"/><path d="M81,917L232,995L180,867Z" fill="#8197bb" stroke="#8197bb" stroke-width="1.51"/><path d="M1310,642L1448,621L1322,607Z" fill="#2076a9" stroke="#2076a9" stroke-width="1.51"/><path d="M1287,826L1330,747L1222,693Z" fill="#086ca9" stroke="#086ca9" stroke-width="1.51"/><path d="M1287,826L1222,693L1130,872Z" fill="#056caa" stroke="#056caa" stroke-width="1.51"/><path d="M1287,826L1130,872L1227,938Z" fill="#0466a1" stroke="#0466a1" stroke-width="1.51"/><path d="M22,377L1,270L-110,320Z" fill="#c8d2e7" stroke="#c8d2e7" stroke-width="1.51"/><path d="M-98,446L-78,471L22,377Z" fill="#b9cce3" stroke="#b9cce3" stroke-width="1.51"/><path d="M1164,986L1130,872L1006,969Z" fill="#12689e" stroke="#12689e" stroke-width="1.51"/><path d="M-78,471L-193,566L-3,527Z" fill="#adc6df" stroke="#adc6df" stroke-width="1.51"/><path d="M-110,320L1,270L-121,175Z" fill="#d3d8ea" stroke="#d3d8ea" stroke-width="1.51"/><path d="M1501,305L1424,207L1381,355Z" fill="#6388b0" stroke="#6388b0" stroke-width="1.51"/><path d="M1208,1019L1164,986L1006,969Z" fill="#0d6194" stroke="#0d6194" stroke-width="1.51"/><path d="M-70,127L1,270L32,160Z" fill="#d9daeb" stroke="#d9daeb" stroke-width="1.51"/><path d="M1164,986L1227,938L1130,872Z" fill="#06649d" stroke="#06649d" stroke-width="1.51"/><path d="M1500,681L1448,621L1330,747Z" fill="#176ca0" stroke="#176ca0" stroke-width="1.51"/><path d="M-49,7L-70,127L32,160Z" fill="#e3e0ef" stroke="#e3e0ef" stroke-width="1.51"/><path d="M1424,207L1419,138L1330,242Z" fill="#7390b8" stroke="#7390b8" stroke-width="1.51"/><path d="M1389,-56L1245,-178L1196,-41Z" fill="#92a8cb" stroke="#92a8cb" stroke-width="1.51"/><path d="M58,809L81,917L160,829Z" fill="#88a0c5" stroke="#88a0c5" stroke-width="1.51"/><path d="M5,836L81,917L58,809Z" fill="#8ba2c7" stroke="#8ba2c7" stroke-width="1.51"/><path d="M5,836L58,809L-14,654Z" fill="#91aad1" stroke="#91aad1" stroke-width="1.51"/><path d="M1389,-56L1196,-41L1327,85Z" fill="#8aa1c6" stroke="#8aa1c6" stroke-width="1.51"/><path d="M-36,908L5,836L-154,826Z" fill="#90a5c9" stroke="#90a5c9" stroke-width="1.51"/><path d="M1411,420L1501,305L1381,355Z" fill="#5784ae" stroke="#5784ae" stroke-width="1.51"/><path d="M1330,747L1448,621L1310,642Z" fill="#1a71a7" stroke="#1a71a7" stroke-width="1.51"/><path d="M1380,882L1330,747L1287,826Z" fill="#04659e" stroke="#04659e" stroke-width="1.51"/><path d="M89,-72L-49,7L32,160Z" fill="#e7e3f0" stroke="#e7e3f0" stroke-width="1.51"/><path d="M-70,127L-121,175L1,270Z" fill="#dbdbec" stroke="#dbdbec" stroke-width="1.51"/><path d="M-114,111L-121,175L-70,127Z" fill="#e3e0ee" stroke="#e3e0ee" stroke-width="1.51"/><path d="M1227,938L1380,882L1287,826Z" fill="#04629a" stroke="#04629a" stroke-width="1.51"/><path d="M1164,986L1208,1019L1227,938Z" fill="#045e93" stroke="#045e93" stroke-width="1.51"/><path d="M862,1070L1208,1019L1006,969Z" fill="#186493" stroke="#186493" stroke-width="1.51"/><path d="M-49,7L-114,111L-70,127Z" fill="#e7e3f0" stroke="#e7e3f0" stroke-width="1.51"/><path d="M1590,442L1501,305L1411,420Z" fill="#4f7da5" stroke="#4f7da5" stroke-width="1.51"/><path d="M1424,207L1528,160L1419,138Z" fill="#748db2" stroke="#748db2" stroke-width="1.51"/><path d="M1413,-98L1389,-56L1456,-40Z" fill="#8b9fbf" stroke="#8b9fbf" stroke-width="1.51"/><path d="M1456,-40L1389,-56L1327,85Z" fill="#889dbf" stroke="#889dbf" stroke-width="1.51"/><path d="M1355,1073L1380,882L1227,938Z" fill="#035a8d" stroke="#035a8d" stroke-width="1.51"/><path d="M-49,7L-196,-68L-114,111Z" fill="#eee9f3" stroke="#eee9f3" stroke-width="1.51"/><path d="M89,-72L-33,-127L-49,7Z" fill="#f0eaf4" stroke="#f0eaf4" stroke-width="1.51"/><path d="M241,-158L-33,-127L89,-72Z" fill="#ede8f2" stroke="#ede8f2" stroke-width="1.51"/><path d="M5,836L-36,908L81,917Z" fill="#8ba1c3" stroke="#8ba1c3" stroke-width="1.51"/><path d="M81,917L104,1074L232,995Z" fill="#7d90af" stroke="#7d90af" stroke-width="1.51"/><path d="M232,995L104,1074L377,1069Z" fill="#7386a3" stroke="#7386a3" stroke-width="1.51"/><path d="M-152,713L5,836L-14,654Z" fill="#96afd4" stroke="#96afd4" stroke-width="1.51"/><path d="M1448,621L1590,442L1391,461Z" fill="#3977a3" stroke="#3977a3" stroke-width="1.51"/><path d="M1507,783L1500,681L1330,747Z" fill="#0c659c" stroke="#0c659c" stroke-width="1.51"/><path d="M-98,446L-193,566L-78,471Z" fill="#b3c9e2" stroke="#b3c9e2" stroke-width="1.51"/><path d="M-110,320L-193,566L-98,446Z" fill="#bacde4" stroke="#bacde4" stroke-width="1.51"/><path d="M-121,175L-193,566L-110,320Z" fill="#c7d4e7" stroke="#c7d4e7" stroke-width="1.51"/><path d="M-196,-68L-193,566L-121,175Z" fill="#dadded" stroke="#dadded" stroke-width="1.51"/><path d="M1389,-56L1373,-152L1245,-178Z" fill="#91a6c7" stroke="#91a6c7" stroke-width="1.51"/><path d="M1413,-98L1373,-152L1389,-56Z" fill="#8ea2c2" stroke="#8ea2c2" stroke-width="1.51"/><path d="M1456,-40L1327,85L1419,138Z" fill="#8298bc" stroke="#8298bc" stroke-width="1.51"/><path d="M-193,566L-152,713L-14,654Z" fill="#9fbcda" stroke="#9fbcda" stroke-width="1.51"/><path d="M1501,305L1528,160L1424,207Z" fill="#6a88ad" stroke="#6a88ad" stroke-width="1.51"/><path d="M1579,213L1528,160L1501,305Z" fill="#6883a6" stroke="#6883a6" stroke-width="1.51"/><path d="M-57,1034L104,1074L81,917Z" fill="#8193af" stroke="#8193af" stroke-width="1.51"/><path d="M377,1069L104,1074L824,1071Z" fill="#5f7b9b" stroke="#5f7b9b" stroke-width="1.51"/><path d="M1413,-98L1551,-114L1373,-152Z" fill="#8d9fbd" stroke="#8d9fbd" stroke-width="1.51"/><path d="M1528,160L1456,-40L1419,138Z" fill="#7c91b4" stroke="#7c91b4" stroke-width="1.51"/><path d="M1380,882L1420,883L1330,747Z" fill="#046199" stroke="#046199" stroke-width="1.51"/><path d="M1355,1073L1420,883L1380,882Z" fill="#04588b" stroke="#04588b" stroke-width="1.51"/><path d="M1608,630L1590,442L1448,621Z" fill="#2b6d97" stroke="#2b6d97" stroke-width="1.51"/><path d="M1617,-42L1551,-114L1456,-40Z" fill="#8494b0" stroke="#8494b0" stroke-width="1.51"/><path d="M1608,308L1579,213L1501,305Z" fill="#5f7ea1" stroke="#5f7ea1" stroke-width="1.51"/><path d="M1420,883L1507,783L1330,747Z" fill="#056299" stroke="#056299" stroke-width="1.51"/><path d="M1500,681L1608,630L1448,621Z" fill="#1b6997" stroke="#1b6997" stroke-width="1.51"/><path d="M-36,908L-57,1034L81,917Z" fill="#889bba" stroke="#889bba" stroke-width="1.51"/><path d="M-152,713L-154,826L5,836Z" fill="#95abd0" stroke="#95abd0" stroke-width="1.51"/><path d="M-193,566L-154,826L-152,713Z" fill="#9eb7d9" stroke="#9eb7d9" stroke-width="1.51"/><path d="M1590,442L1608,308L1501,305Z" fill="#53799e" stroke="#53799e" stroke-width="1.51"/><path d="M1590,442L1621,617L1608,308Z" fill="#3f7095" stroke="#3f7095" stroke-width="1.51"/><path d="M1507,783L1608,630L1500,681Z" fill="#136292" stroke="#136292" stroke-width="1.51"/><path d="M1585,846L1621,617L1608,630Z" fill="#115c8a" stroke="#115c8a" stroke-width="1.51"/><path d="M1420,883L1585,846L1507,783Z" fill="#04598b" stroke="#04598b" stroke-width="1.51"/><path d="M1208,1019L1355,1073L1227,938Z" fill="#045789" stroke="#045789" stroke-width="1.51"/><path d="M862,1070L1355,1073L1208,1019Z" fill="#095989" stroke="#095989" stroke-width="1.51"/><path d="M824,1071L1355,1073L862,1070Z" fill="#17608a" stroke="#17608a" stroke-width="1.51"/><path d="M1460,1075L1355,1073L824,1071Z" fill="#035382" stroke="#035382" stroke-width="1.51"/><path d="M-127,962L-57,1034L-36,908Z" fill="#899cb9" stroke="#899cb9" stroke-width="1.51"/><path d="M1608,630L1621,617L1590,442Z" fill="#296890" stroke="#296890" stroke-width="1.51"/><path d="M1585,846L1608,630L1507,783Z" fill="#075a8c" stroke="#075a8c" stroke-width="1.51"/><path d="M-33,-127L-196,-68L-49,7Z" fill="#f3edf5" stroke="#f3edf5" stroke-width="1.51"/><path d="M-114,111L-196,-68L-121,175Z" fill="#eae6f2" stroke="#eae6f2" stroke-width="1.51"/><path d="M-154,826L-127,962L-36,908Z" fill="#90a4c4" stroke="#90a4c4" stroke-width="1.51"/><path d="M-33,-127L-166,-177L-196,-68Z" fill="#f9f1f8" stroke="#f9f1f8" stroke-width="1.51"/><path d="M241,-158L-166,-177L-33,-127Z" fill="#f4eef6" stroke="#f4eef6" stroke-width="1.51"/><path d="M799,-179L-166,-177L241,-158Z" fill="#e4e2ef" stroke="#e4e2ef" stroke-width="1.51"/><path d="M1075,-181L-166,-177L799,-179Z" fill="#cad6e9" stroke="#cad6e9" stroke-width="1.51"/><path d="M1456,-40L1551,-114L1413,-98Z" fill="#899bb8" stroke="#899bb8" stroke-width="1.51"/><path d="M1617,-42L1456,-40L1528,160Z" fill="#7e90ad" stroke="#7e90ad" stroke-width="1.51"/><path d="M1617,-42L1528,160L1579,213Z" fill="#7487a5" stroke="#7487a5" stroke-width="1.51"/><path d="M1555,952L1585,846L1420,883Z" fill="#045483" stroke="#045483" stroke-width="1.51"/><path d="M1621,617L1617,-42L1608,308Z" fill="#5a799a" stroke="#5a799a" stroke-width="1.51"/><path d="M1608,308L1617,-42L1579,213Z" fill="#6d82a0" stroke="#6d82a0" stroke-width="1.51"/><path d="M1355,1073L1460,1075L1420,883Z" fill="#03507e" stroke="#03507e" stroke-width="1.51"/><path d="M104,1074L1460,1075L824,1071Z" fill="#356b91" stroke="#356b91" stroke-width="1.51"/><path d="M1460,1075L1555,952L1420,883Z" fill="#03507d" stroke="#03507d" stroke-width="1.51"/><path d="M-193,566L-150,1044L-154,826Z" fill="#97acd0" stroke="#97acd0" stroke-width="1.51"/><path d="M-154,826L-150,1044L-127,962Z" fill="#8ea1be" stroke="#8ea1be" stroke-width="1.51"/><path d="M-127,962L-150,1044L-57,1034Z" fill="#8897b1" stroke="#8897b1" stroke-width="1.51"/><path d="M-57,1034L-150,1044L104,1074Z" fill="#8190a9" stroke="#8190a9" stroke-width="1.51"/><path d="M1460,1075L1638,1012L1555,952Z" fill="#03466d" stroke="#03466d" stroke-width="1.51"/><path d="M1555,952L1638,1012L1585,846Z" fill="#034b76" stroke="#034b76" stroke-width="1.51"/><path d="M1585,846L1638,1012L1621,617Z" fill="#035180" stroke="#035180" stroke-width="1.51"/><path d="M1621,617L1638,1012L1617,-42Z" fill="#316990" stroke="#316990" stroke-width="1.51"/></svg>