<svg xmlns="http://www.w3.org/2000/svg" width="300" height="3840"><path d="M298,1864L419,2033L474,1950Z" fill="#4a8bbe" stroke="#4a8bbe" stroke-width="1.51"/><path d="M474,1950L568,1817L298,1864Z" fill="#4c87b7" stroke="#4c87b7" stroke-width="1.51"/><path d="M482,2282L568,1817L474,1950Z" fill="#427ead" stroke="#427ead" stroke-width="1.51"/><path d="M298,1864L156,2082L419,2033Z" fill="#5298c5" stroke="#5298c5" stroke-width="1.51"/><path d="M156,2082L339,2237L419,2033Z" fill="#4a93c2" stroke="#4a93c2" stroke-width="1.51"/><path d="M419,2033L482,2282L474,1950Z" fill="#4082b3" stroke="#4082b3" stroke-width="1.51"/><path d="M568,1817L361,1630L298,1864Z" fill="#548cbe" stroke="#548cbe" stroke-width="1.51"/><path d="M298,1864L36,2008L156,2082Z" fill="#6ea6cd" stroke="#6ea6cd" stroke-width="1.51"/><path d="M361,1630L206,1675L298,1864Z" fill="#619dc9" stroke="#619dc9" stroke-width="1.51"/><path d="M568,1817L454,1621L361,1630Z" fill="#5689b7" stroke="#5689b7" stroke-width="1.51"/><path d="M80,1745L36,2008L298,1864Z" fill="#79abd0" stroke="#79abd0" stroke-width="1.51"/><path d="M156,2082L207,2292L339,2237Z" fill="#539ac6" stroke="#539ac6" stroke-width="1.51"/><path d="M206,1675L80,1745L298,1864Z" fill="#72a7cd" stroke="#72a7cd" stroke-width="1.51"/><path d="M339,2237L482,2282L419,2033Z" fill="#3c84b8" stroke="#3c84b8" stroke-width="1.51"/><path d="M14,2139L207,2292L156,2082Z" fill="#6ea5cd" stroke="#6ea5cd" stroke-width="1.51"/><path d="M339,2237L251,2476L482,2282Z" fill="#3788bc" stroke="#3788bc" stroke-width="1.51"/><path d="M80,1745L-28,1863L36,2008Z" fill="#90b4d6" stroke="#90b4d6" stroke-width="1.51"/><path d="M36,2008L14,2139L156,2082Z" fill="#80acd1" stroke="#80acd1" stroke-width="1.51"/><path d="M-267,2046L14,2139L36,2008Z" fill="#9bb8d8" stroke="#9bb8d8" stroke-width="1.51"/><path d="M361,1630L219,1484L206,1675Z" fill="#6ba3cb" stroke="#6ba3cb" stroke-width="1.51"/><path d="M206,1675L33,1547L80,1745Z" fill="#8ab1d4" stroke="#8ab1d4" stroke-width="1.51"/><path d="M-243,1662L-241,1823L-28,1863Z" fill="#b4c7e0" stroke="#b4c7e0" stroke-width="1.51"/><path d="M282,1447L219,1484L361,1630Z" fill="#6ba1cb" stroke="#6ba1cb" stroke-width="1.51"/><path d="M454,1621L282,1447L361,1630Z" fill="#6295c5" stroke="#6295c5" stroke-width="1.51"/><path d="M23,1386L33,1547L219,1484Z" fill="#94b6d7" stroke="#94b6d7" stroke-width="1.51"/><path d="M219,1484L33,1547L206,1675Z" fill="#83aed3" stroke="#83aed3" stroke-width="1.51"/><path d="M482,2282L579,2434L568,1817Z" fill="#3776a2" stroke="#3776a2" stroke-width="1.51"/><path d="M339,2564L579,2434L482,2282Z" fill="#297aad" stroke="#297aad" stroke-width="1.51"/><path d="M207,2292L251,2476L339,2237Z" fill="#4294c3" stroke="#4294c3" stroke-width="1.51"/><path d="M83,2431L251,2476L207,2292Z" fill="#569bc7" stroke="#569bc7" stroke-width="1.51"/><path d="M454,1621L470,1397L282,1447Z" fill="#6292c2" stroke="#6292c2" stroke-width="1.51"/><path d="M585,1329L470,1397L454,1621Z" fill="#5f88b3" stroke="#5f88b3" stroke-width="1.51"/><path d="M14,2139L83,2431L207,2292Z" fill="#6ea5cc" stroke="#6ea5cc" stroke-width="1.51"/><path d="M-303,2246L-74,2358L14,2139Z" fill="#9bb9d8" stroke="#9bb9d8" stroke-width="1.51"/><path d="M14,2139L-74,2358L83,2431Z" fill="#82acd1" stroke="#82acd1" stroke-width="1.51"/><path d="M-28,1863L-267,2046L36,2008Z" fill="#a1bbda" stroke="#a1bbda" stroke-width="1.51"/><path d="M-243,1662L-28,1863L80,1745Z" fill="#a6bedb" stroke="#a6bedb" stroke-width="1.51"/><path d="M251,2476L339,2564L482,2282Z" fill="#2f85bb" stroke="#2f85bb" stroke-width="1.51"/><path d="M83,2600L339,2564L251,2476Z" fill="#4393c3" stroke="#4393c3" stroke-width="1.51"/><path d="M83,2600L251,2476L83,2431Z" fill="#5c9dc8" stroke="#5c9dc8" stroke-width="1.51"/><path d="M172,1189L23,1386L219,1484Z" fill="#90b4d5" stroke="#90b4d5" stroke-width="1.51"/><path d="M470,1397L368,1308L282,1447Z" fill="#6a97c6" stroke="#6a97c6" stroke-width="1.51"/><path d="M-241,1823L-267,2046L-28,1863Z" fill="#afc5df" stroke="#afc5df" stroke-width="1.51"/><path d="M470,1397L585,1329L368,1308Z" fill="#668db9" stroke="#668db9" stroke-width="1.51"/><path d="M568,1817L585,1329L454,1621Z" fill="#5782ab" stroke="#5782ab" stroke-width="1.51"/><path d="M614,996L585,1329L568,1817Z" fill="#5c7da0" stroke="#5c7da0" stroke-width="1.51"/><path d="M33,1547L-243,1662L80,1745Z" fill="#a7bddc" stroke="#a7bddc" stroke-width="1.51"/><path d="M172,1189L219,1484L282,1447Z" fill="#7eaad0" stroke="#7eaad0" stroke-width="1.51"/><path d="M-241,1823L-243,1662L-267,2046Z" fill="#b8cce3" stroke="#b8cce3" stroke-width="1.51"/><path d="M-205,1526L-243,1662L33,1547Z" fill="#b7c7e1" stroke="#b7c7e1" stroke-width="1.51"/><path d="M23,1386L-205,1526L33,1547Z" fill="#aec1dd" stroke="#aec1dd" stroke-width="1.51"/><path d="M-67,2619L83,2600L83,2431Z" fill="#74a4cd" stroke="#74a4cd" stroke-width="1.51"/><path d="M377,2695L499,2650L339,2564Z" fill="#1f7ab4" stroke="#1f7ab4" stroke-width="1.51"/><path d="M339,2564L499,2650L579,2434Z" fill="#2077ab" stroke="#2077ab" stroke-width="1.51"/><path d="M23,1386L-12,1328L-205,1526Z" fill="#b4c4df" stroke="#b4c4df" stroke-width="1.51"/><path d="M172,1189L-12,1328L23,1386Z" fill="#a2bbda" stroke="#a2bbda" stroke-width="1.51"/><path d="M-267,2046L-303,2246L14,2139Z" fill="#a6c0dd" stroke="#a6c0dd" stroke-width="1.51"/><path d="M-74,2358L-67,2619L83,2431Z" fill="#81abd1" stroke="#81abd1" stroke-width="1.51"/><path d="M-243,1662L-303,2246L-267,2046Z" fill="#b5cae2" stroke="#b5cae2" stroke-width="1.51"/><path d="M150,2727L377,2695L339,2564Z" fill="#2f89bc" stroke="#2f89bc" stroke-width="1.51"/><path d="M499,2650L506,2701L579,2434Z" fill="#1e6fa1" stroke="#1e6fa1" stroke-width="1.51"/><path d="M377,2695L506,2701L499,2650Z" fill="#1b74ab" stroke="#1b74ab" stroke-width="1.51"/><path d="M368,1308L172,1189L282,1447Z" fill="#76a6cd" stroke="#76a6cd" stroke-width="1.51"/><path d="M246,1121L172,1189L368,1308Z" fill="#7daacf" stroke="#7daacf" stroke-width="1.51"/><path d="M-303,2246L-185,2485L-74,2358Z" fill="#9fbcda" stroke="#9fbcda" stroke-width="1.51"/><path d="M-185,2485L-67,2619L-74,2358Z" fill="#8fb1d4" stroke="#8fb1d4" stroke-width="1.51"/><path d="M83,2600L150,2727L339,2564Z" fill="#4b94c3" stroke="#4b94c3" stroke-width="1.51"/><path d="M377,2695L398,2906L506,2701Z" fill="#1975ae" stroke="#1975ae" stroke-width="1.51"/><path d="M14,2805L150,2727L83,2600Z" fill="#659cc8" stroke="#659cc8" stroke-width="1.51"/><path d="M172,1189L74,1121L-12,1328Z" fill="#a2bbda" stroke="#a2bbda" stroke-width="1.51"/><path d="M614,996L246,1121L368,1308Z" fill="#7297c4" stroke="#7297c4" stroke-width="1.51"/><path d="M246,1121L74,1121L172,1189Z" fill="#93b5d6" stroke="#93b5d6" stroke-width="1.51"/><path d="M-12,1328L-250,1299L-205,1526Z" fill="#c1cce3" stroke="#c1cce3" stroke-width="1.51"/><path d="M-67,2619L14,2805L83,2600Z" fill="#76a3cc" stroke="#76a3cc" stroke-width="1.51"/><path d="M-185,2485L-149,2662L-67,2619Z" fill="#91b1d4" stroke="#91b1d4" stroke-width="1.51"/><path d="M-316,2819L-149,2662L-185,2485Z" fill="#99b6d7" stroke="#99b6d7" stroke-width="1.51"/><path d="M-51,1066L-250,1299L-12,1328Z" fill="#c1cae2" stroke="#c1cae2" stroke-width="1.51"/><path d="M-205,1526L-250,1299L-243,1662Z" fill="#c5d1e6" stroke="#c5d1e6" stroke-width="1.51"/><path d="M-243,1662L-315,865L-303,2246Z" fill="#c5d2e7" stroke="#c5d2e7" stroke-width="1.51"/><path d="M-149,2662L14,2805L-67,2619Z" fill="#85a8cf" stroke="#85a8cf" stroke-width="1.51"/><path d="M150,2727L398,2906L377,2695Z" fill="#2883ba" stroke="#2883ba" stroke-width="1.51"/><path d="M58,3049L398,2906L150,2727Z" fill="#428cbf" stroke="#428cbf" stroke-width="1.51"/><path d="M-89,887L-51,1066L56,798Z" fill="#c0c9e1" stroke="#c0c9e1" stroke-width="1.51"/><path d="M74,1121L-51,1066L-12,1328Z" fill="#b1c2de" stroke="#b1c2de" stroke-width="1.51"/><path d="M585,1329L614,996L368,1308Z" fill="#688ab2" stroke="#688ab2" stroke-width="1.51"/><path d="M246,1121L56,798L74,1121Z" fill="#a0bad9" stroke="#a0bad9" stroke-width="1.51"/><path d="M579,2434L614,996L568,1817Z" fill="#4b779d" stroke="#4b779d" stroke-width="1.51"/><path d="M-51,1066L-247,1111L-250,1299Z" fill="#cdd2e7" stroke="#cdd2e7" stroke-width="1.51"/><path d="M-250,1299L-315,865L-243,1662Z" fill="#d0d7e9" stroke="#d0d7e9" stroke-width="1.51"/><path d="M363,3084L517,3036L398,2906Z" fill="#0a6eab" stroke="#0a6eab" stroke-width="1.51"/><path d="M398,2906L517,3036L506,2701Z" fill="#126da6" stroke="#126da6" stroke-width="1.51"/><path d="M506,2701L517,3036L579,2434Z" fill="#186b9e" stroke="#186b9e" stroke-width="1.51"/><path d="M58,3049L363,3084L398,2906Z" fill="#2681b9" stroke="#2681b9" stroke-width="1.51"/><path d="M-149,2662L-190,2912L14,2805Z" fill="#89a8d0" stroke="#89a8d0" stroke-width="1.51"/><path d="M-303,2246L-316,2819L-185,2485Z" fill="#a0bedb" stroke="#a0bedb" stroke-width="1.51"/><path d="M-316,2819L-190,2912L-149,2662Z" fill="#96b2d6" stroke="#96b2d6" stroke-width="1.51"/><path d="M58,3049L150,2727L14,2805Z" fill="#6498c7" stroke="#6498c7" stroke-width="1.51"/><path d="M614,996L269,801L246,1121Z" fill="#7b9eca" stroke="#7b9eca" stroke-width="1.51"/><path d="M-51,1066L-89,887L-247,1111Z" fill="#ccd0e6" stroke="#ccd0e6" stroke-width="1.51"/><path d="M56,798L-51,1066L74,1121Z" fill="#b4c3de" stroke="#b4c3de" stroke-width="1.51"/><path d="M-111,3032L58,3049L14,2805Z" fill="#759cc9" stroke="#759cc9" stroke-width="1.51"/><path d="M614,996L586,801L269,801Z" fill="#7894bb" stroke="#7894bb" stroke-width="1.51"/><path d="M269,801L56,798L246,1121Z" fill="#97b6d7" stroke="#97b6d7" stroke-width="1.51"/><path d="M183,615L56,798L269,801Z" fill="#a1bbda" stroke="#a1bbda" stroke-width="1.51"/><path d="M-190,2912L-111,3032L14,2805Z" fill="#85a4ce" stroke="#85a4ce" stroke-width="1.51"/><path d="M58,3049L113,3192L363,3084Z" fill="#4588bd" stroke="#4588bd" stroke-width="1.51"/><path d="M-208,3124L-111,3032L-190,2912Z" fill="#8da8d0" stroke="#8da8d0" stroke-width="1.51"/><path d="M-208,3124L-78,3095L-111,3032Z" fill="#87a3cd" stroke="#87a3cd" stroke-width="1.51"/><path d="M-111,3032L-78,3095L58,3049Z" fill="#799cc9" stroke="#799cc9" stroke-width="1.51"/><path d="M447,678L345,679L269,801Z" fill="#86a5ce" stroke="#86a5ce" stroke-width="1.51"/><path d="M586,801L447,678L269,801Z" fill="#7f9bc4" stroke="#7f9bc4" stroke-width="1.51"/><path d="M-89,887L-315,865L-247,1111Z" fill="#d8d9ea" stroke="#d8d9ea" stroke-width="1.51"/><path d="M-247,1111L-315,865L-250,1299Z" fill="#d8daeb" stroke="#d8daeb" stroke-width="1.51"/><path d="M-303,2246L-315,865L-316,2819Z" fill="#b8cde4" stroke="#b8cde4" stroke-width="1.51"/><path d="M-158,665L-315,865L-89,887Z" fill="#dad9ea" stroke="#dad9ea" stroke-width="1.51"/><path d="M-158,665L-89,887L56,798Z" fill="#cbcfe5" stroke="#cbcfe5" stroke-width="1.51"/><path d="M-78,3095L113,3192L58,3049Z" fill="#6a94c5" stroke="#6a94c5" stroke-width="1.51"/><path d="M363,3084L519,3255L517,3036Z" fill="#0468a3" stroke="#0468a3" stroke-width="1.51"/><path d="M-78,3095L9,3308L113,3192Z" fill="#6c94c2" stroke="#6c94c2" stroke-width="1.51"/><path d="M-316,2819L-208,3124L-190,2912Z" fill="#95afd4" stroke="#95afd4" stroke-width="1.51"/><path d="M517,3036L607,3593L579,2434Z" fill="#085e91" stroke="#085e91" stroke-width="1.51"/><path d="M359,3315L519,3255L363,3084Z" fill="#056ba8" stroke="#056ba8" stroke-width="1.51"/><path d="M345,679L183,615L269,801Z" fill="#8fb2d4" stroke="#8fb2d4" stroke-width="1.51"/><path d="M198,535L183,615L345,679Z" fill="#97b6d6" stroke="#97b6d6" stroke-width="1.51"/><path d="M113,3192L359,3315L363,3084Z" fill="#237cb3" stroke="#237cb3" stroke-width="1.51"/><path d="M178,3360L359,3315L113,3192Z" fill="#3781b5" stroke="#3781b5" stroke-width="1.51"/><path d="M-17,607L-158,665L56,798Z" fill="#cacee4" stroke="#cacee4" stroke-width="1.51"/><path d="M183,615L-17,607L56,798Z" fill="#b5c5e0" stroke="#b5c5e0" stroke-width="1.51"/><path d="M-208,3124L9,3308L-78,3095Z" fill="#819dc8" stroke="#819dc8" stroke-width="1.51"/><path d="M183,615L14,553L-17,607Z" fill="#bac8e1" stroke="#bac8e1" stroke-width="1.51"/><path d="M325,480L198,535L345,679Z" fill="#91b1d4" stroke="#91b1d4" stroke-width="1.51"/><path d="M607,3593L504,3359L410,3707Z" fill="#045c90" stroke="#045c90" stroke-width="1.51"/><path d="M359,3315L504,3359L519,3255Z" fill="#04659e" stroke="#04659e" stroke-width="1.51"/><path d="M9,3308L178,3360L113,3192Z" fill="#588bbb" stroke="#588bbb" stroke-width="1.51"/><path d="M198,535L14,553L183,615Z" fill="#adc2de" stroke="#adc2de" stroke-width="1.51"/><path d="M-17,607L-177,455L-158,665Z" fill="#d8d7ea" stroke="#d8d7ea" stroke-width="1.51"/><path d="M28,310L-177,455L14,553Z" fill="#d0d3e8" stroke="#d0d3e8" stroke-width="1.51"/><path d="M447,678L325,480L345,679Z" fill="#88a4ce" stroke="#88a4ce" stroke-width="1.51"/><path d="M616,499L325,480L447,678Z" fill="#839cc2" stroke="#839cc2" stroke-width="1.51"/><path d="M586,801L616,499L447,678Z" fill="#798eb0" stroke="#798eb0" stroke-width="1.51"/><path d="M614,996L616,499L586,801Z" fill="#7184a2" stroke="#7184a2" stroke-width="1.51"/><path d="M28,310L14,553L198,535Z" fill="#b9c8e1" stroke="#b9c8e1" stroke-width="1.51"/><path d="M14,553L-177,455L-17,607Z" fill="#d1d3e7" stroke="#d1d3e7" stroke-width="1.51"/><path d="M-158,665L-177,455L-315,865Z" fill="#e1deed" stroke="#e1deed" stroke-width="1.51"/><path d="M9,3308L58,3556L178,3360Z" fill="#5a8ab8" stroke="#5a8ab8" stroke-width="1.51"/><path d="M178,3360L271,3641L359,3315Z" fill="#2279ad" stroke="#2279ad" stroke-width="1.51"/><path d="M-208,3124L-177,3428L9,3308Z" fill="#839dc6" stroke="#839dc6" stroke-width="1.51"/><path d="M-245,3548L-177,3428L-208,3124Z" fill="#8da3c8" stroke="#8da3c8" stroke-width="1.51"/><path d="M-177,3428L58,3556L9,3308Z" fill="#7493bd" stroke="#7493bd" stroke-width="1.51"/><path d="M325,480L291,284L198,535Z" fill="#95b6d7" stroke="#95b6d7" stroke-width="1.51"/><path d="M528,207L291,284L325,480Z" fill="#8ea8d0" stroke="#8ea8d0" stroke-width="1.51"/><path d="M291,284L28,310L198,535Z" fill="#aac2dd" stroke="#aac2dd" stroke-width="1.51"/><path d="M519,3255L607,3593L517,3036Z" fill="#045b8f" stroke="#045b8f" stroke-width="1.51"/><path d="M579,2434L607,3593L614,996Z" fill="#296a93" stroke="#296a93" stroke-width="1.51"/><path d="M614,996L629,-305L616,499Z" fill="#7988a2" stroke="#7988a2" stroke-width="1.51"/><path d="M504,3359L607,3593L519,3255Z" fill="#03598d" stroke="#03598d" stroke-width="1.51"/><path d="M271,3641L504,3359L359,3315Z" fill="#096aa6" stroke="#096aa6" stroke-width="1.51"/><path d="M58,3556L271,3641L178,3360Z" fill="#4481b1" stroke="#4481b1" stroke-width="1.51"/><path d="M-177,3428L37,3578L58,3556Z" fill="#7091ba" stroke="#7091ba" stroke-width="1.51"/><path d="M37,3578L271,3641L58,3556Z" fill="#4f84b1" stroke="#4f84b1" stroke-width="1.51"/><path d="M-316,2819L-245,3548L-208,3124Z" fill="#93aacf" stroke="#93aacf" stroke-width="1.51"/><path d="M-177,3428L-245,3548L37,3578Z" fill="#8199bf" stroke="#8199bf" stroke-width="1.51"/><path d="M297,3855L410,3707L271,3641Z" fill="#176b9f" stroke="#176b9f" stroke-width="1.51"/><path d="M291,284L59,222L28,310Z" fill="#b5c8e1" stroke="#b5c8e1" stroke-width="1.51"/><path d="M616,499L528,207L325,480Z" fill="#859cc0" stroke="#859cc0" stroke-width="1.51"/><path d="M24,103L59,222L194,29Z" fill="#bfcee4" stroke="#bfcee4" stroke-width="1.51"/><path d="M28,310L-195,214L-177,455Z" fill="#dddbeb" stroke="#dddbeb" stroke-width="1.51"/><path d="M167,3788L271,3641L37,3578Z" fill="#457fac" stroke="#457fac" stroke-width="1.51"/><path d="M271,3641L410,3707L504,3359Z" fill="#0566a0" stroke="#0566a0" stroke-width="1.51"/><path d="M410,3707L588,3712L607,3593Z" fill="#045686" stroke="#045686" stroke-width="1.51"/><path d="M616,499L611,171L528,207Z" fill="#7f8fab" stroke="#7f8fab" stroke-width="1.51"/><path d="M194,29L59,222L291,284Z" fill="#acc4df" stroke="#acc4df" stroke-width="1.51"/><path d="M410,3707L509,3995L588,3712Z" fill="#035586" stroke="#035586" stroke-width="1.51"/><path d="M-245,3548L-61,3705L37,3578Z" fill="#7b94ba" stroke="#7b94ba" stroke-width="1.51"/><path d="M24,103L-195,214L59,222Z" fill="#d5d7ea" stroke="#d5d7ea" stroke-width="1.51"/><path d="M59,222L-195,214L28,310Z" fill="#d3d6e9" stroke="#d3d6e9" stroke-width="1.51"/><path d="M-177,455L-195,214L-315,865Z" fill="#e5e2ef" stroke="#e5e2ef" stroke-width="1.51"/><path d="M-61,3705L167,3788L37,3578Z" fill="#5f87b0" stroke="#5f87b0" stroke-width="1.51"/><path d="M403,57L291,284L528,207Z" fill="#90a8ce" stroke="#90a8ce" stroke-width="1.51"/><path d="M611,171L403,57L528,207Z" fill="#8a9dbe" stroke="#8a9dbe" stroke-width="1.51"/><path d="M-26,-23L-184,107L24,103Z" fill="#dbdbeb" stroke="#dbdbeb" stroke-width="1.51"/><path d="M24,103L-184,107L-195,214Z" fill="#e2dfee" stroke="#e2dfee" stroke-width="1.51"/><path d="M-195,214L-320,-191L-315,865Z" fill="#efe9f3" stroke="#efe9f3" stroke-width="1.51"/><path d="M240,3891L297,3855L167,3788Z" fill="#2d719e" stroke="#2d719e" stroke-width="1.51"/><path d="M167,3788L297,3855L271,3641Z" fill="#2a73a2" stroke="#2a73a2" stroke-width="1.51"/><path d="M403,57L194,29L291,284Z" fill="#9ab8d8" stroke="#9ab8d8" stroke-width="1.51"/><path d="M89,4089L240,3891L167,3788Z" fill="#3f769f" stroke="#3f769f" stroke-width="1.51"/><path d="M-245,3548L-281,3757L-61,3705Z" fill="#879bbd" stroke="#879bbd" stroke-width="1.51"/><path d="M-316,2819L-281,3757L-245,3548Z" fill="#92a7ca" stroke="#92a7ca" stroke-width="1.51"/><path d="M-104,3857L167,3788L-61,3705Z" fill="#6788ae" stroke="#6788ae" stroke-width="1.51"/><path d="M297,3855L509,3995L410,3707Z" fill="#045d92" stroke="#045d92" stroke-width="1.51"/><path d="M-281,3757L-104,3857L-61,3705Z" fill="#7f94b5" stroke="#7f94b5" stroke-width="1.51"/><path d="M210,-126L-26,-23L194,29Z" fill="#bbcde3" stroke="#bbcde3" stroke-width="1.51"/><path d="M194,29L-26,-23L24,103Z" fill="#c6d1e6" stroke="#c6d1e6" stroke-width="1.51"/><path d="M403,57L436,-72L194,29Z" fill="#98b2d6" stroke="#98b2d6" stroke-width="1.51"/><path d="M611,171L436,-72L403,57Z" fill="#8da2c4" stroke="#8da2c4" stroke-width="1.51"/><path d="M276,4046L297,3855L240,3891Z" fill="#1f6b98" stroke="#1f6b98" stroke-width="1.51"/><path d="M276,4046L509,3995L297,3855Z" fill="#0d5f91" stroke="#0d5f91" stroke-width="1.51"/><path d="M436,-72L210,-126L194,29Z" fill="#9fbcdb" stroke="#9fbcdb" stroke-width="1.51"/><path d="M89,4089L276,4046L240,3891Z" fill="#356f99" stroke="#356f99" stroke-width="1.51"/><path d="M436,-72L313,-379L210,-126Z" fill="#9eb9d9" stroke="#9eb9d9" stroke-width="1.51"/><path d="M611,171L534,-181L436,-72Z" fill="#8b9dbc" stroke="#8b9dbc" stroke-width="1.51"/><path d="M-104,3857L89,4089L167,3788Z" fill="#5b80a5" stroke="#5b80a5" stroke-width="1.51"/><path d="M276,4046L483,4106L509,3995Z" fill="#045686" stroke="#045686" stroke-width="1.51"/><path d="M-9,4118L89,4089L-104,3857Z" fill="#6581a2" stroke="#6581a2" stroke-width="1.51"/><path d="M89,4089L483,4106L276,4046Z" fill="#1c6590" stroke="#1c6590" stroke-width="1.51"/><path d="M509,3995L483,4106L588,3712Z" fill="#034f7b" stroke="#034f7b" stroke-width="1.51"/><path d="M-281,3757L-230,4026L-104,3857Z" fill="#8395b2" stroke="#8395b2" stroke-width="1.51"/><path d="M-230,4026L-171,4047L-104,3857Z" fill="#7d8fac" stroke="#7d8fac" stroke-width="1.51"/><path d="M171,-351L-133,-194L210,-126Z" fill="#c6d3e7" stroke="#c6d3e7" stroke-width="1.51"/><path d="M210,-126L-133,-194L-26,-23Z" fill="#d1d7e9" stroke="#d1d7e9" stroke-width="1.51"/><path d="M-26,-23L-133,-194L-184,107Z" fill="#e5e1ef" stroke="#e5e1ef" stroke-width="1.51"/><path d="M-184,107L-320,-191L-195,214Z" fill="#f1eaf4" stroke="#f1eaf4" stroke-width="1.51"/><path d="M-230,4026L-9,4118L-171,4047Z" fill="#7789a6" stroke="#7789a6" stroke-width="1.51"/><path d="M-171,4047L-9,4118L-104,3857Z" fill="#7487a7" stroke="#7487a7" stroke-width="1.51"/><path d="M89,4089L-9,4118L483,4106Z" fill="#376e95" stroke="#376e95" stroke-width="1.51"/><path d="M-133,-194L-320,-191L-184,107Z" fill="#f0ebf4" stroke="#f0ebf4" stroke-width="1.51"/><path d="M-315,865L-320,-191L-316,2819Z" fill="#d8dcec" stroke="#d8dcec" stroke-width="1.51"/><path d="M611,171L629,-305L534,-181Z" fill="#8594ae" stroke="#8594ae" stroke-width="1.51"/><path d="M313,-379L171,-351L210,-126Z" fill="#abc5df" stroke="#abc5df" stroke-width="1.51"/><path d="M-133,-194L-270,-372L-320,-191Z" fill="#f6eff6" stroke="#f6eff6" stroke-width="1.51"/><path d="M616,499L629,-305L611,171Z" fill="#7f8da5" stroke="#7f8da5" stroke-width="1.51"/><path d="M607,3593L629,-305L614,996Z" fill="#577899" stroke="#577899" stroke-width="1.51"/><path d="M313,-379L436,-72L534,-181Z" fill="#95abce" stroke="#95abce" stroke-width="1.51"/><path d="M629,-305L313,-379L534,-181Z" fill="#92a5c5" stroke="#92a5c5" stroke-width="1.51"/><path d="M313,-379L-270,-372L171,-351Z" fill="#cbd6e9" stroke="#cbd6e9" stroke-width="1.51"/><path d="M171,-351L-270,-372L-133,-194Z" fill="#e4e2ef" stroke="#e4e2ef" stroke-width="1.51"/></svg>